<svg width="90" height="90" viewBox="0 0 90 90" fill="none" xmlns="http://www.w3.org/2000/svg">
<circle cx="45" cy="45" r="45" fill="#F5F5F5"/>
<path d="M10 66V34.8539C10 25.4831 17.4 18 26.6667 18C35.9333 18 43.3333 25.4831 43.3333 34.8539C43.3333 38.6292 42.0667 42.0674 40 44.9663C42.4 47.3258 44 50.5618 44 54.2697V66H33.6V54.2697C33.6 52.8539 32.4667 51.7079 31.2 51.7079H20.4V66H10ZM20.4 34.8539V41.191H26.6667C30.1333 41.191 32.9333 38.3595 32.9333 34.8539C32.9333 31.3483 30.1333 28.5169 26.6667 28.5169C23.2 28.5169 20.4 31.3483 20.4 34.8539Z" fill="#231F20"/>
<path d="M26.667 17.5C36.2148 17.5002 43.8328 25.2122 43.833 34.8535C43.833 38.5961 42.6218 42.0102 40.6436 44.9111C42.9627 47.3247 44.5 50.5666 44.5 54.2695V66.5H33.0996V54.2695C33.0995 53.1071 32.1682 52.2081 31.2002 52.208H20.9004V66.5H9.5V34.8535C9.50022 25.2121 17.1191 17.5 26.667 17.5ZM26.667 29.0166C23.4819 29.0166 20.9006 31.619 20.9004 34.8535V40.6914H26.667C29.8521 40.6912 32.4336 38.0882 32.4336 34.8535C32.4334 31.6191 29.852 29.0168 26.667 29.0166Z" stroke="#6B7280" stroke-opacity="0.1"/>
<path d="M69.2545 55.8442C63.6185 55.5888 59.7662 59.3162 58.6513 65.9764H48.2142C46.7151 57.9965 53.1766 49.6098 64.7238 44.9126H48.1193V34H69.3304H80V44.6194V66H69.2545V55.8442Z" fill="#D90429"/>
</svg>
