<svg width="71" height="50" viewBox="0 0 71 50" fill="none" xmlns="http://www.w3.org/2000/svg">
<path d="M1 49V17.8539C1 8.48315 8.4 1 17.6667 1C26.9333 1 34.3333 8.48315 34.3333 17.8539C34.3333 21.6292 33.0667 25.0674 31 27.9663C33.4 30.3258 35 33.5618 35 37.2697V49H24.6V37.2697C24.6 35.8539 23.4667 34.7079 22.2 34.7079H11.4V49H1ZM11.4 17.8539V24.191H17.6667C21.1333 24.191 23.9333 21.3595 23.9333 17.8539C23.9333 14.3483 21.1333 11.5169 17.6667 11.5169C14.2 11.5169 11.4 14.3483 11.4 17.8539Z" fill="#18181B"/>
<path d="M60.2545 38.8442C54.6185 38.5888 50.7662 42.3162 49.6513 48.9764H39.2142C37.7151 40.9965 44.1766 32.6098 55.7238 27.9126H39.1193V17H60.3304H71V27.6194V49H60.2545V38.8442Z" fill="#D90429"/>
</svg>
