<svg width="148" height="48" viewBox="0 0 148 48" fill="none" xmlns="http://www.w3.org/2000/svg">
<path d="M0 47.2044V16.5746C0 7.35912 7.42604 0 16.7253 0C26.0246 0 33.4506 7.35912 33.4506 16.5746C33.4506 20.2873 32.1795 23.6685 30.1056 26.5193C32.514 28.8398 34.1196 32.0221 34.1196 35.6685V47.2044H23.683V35.6685C23.683 34.2762 22.5457 33.1492 21.2746 33.1492H10.4366V47.2044H0ZM10.4366 16.5746V22.8066H16.7253C20.2042 22.8066 23.014 20.0221 23.014 16.5746C23.014 13.1271 20.2042 10.3425 16.7253 10.3425C13.2464 10.3425 10.4366 13.1271 10.4366 16.5746Z" fill="white"/>
<path d="M36.8009 30.0331C36.8009 20.1547 44.9629 12.0663 54.9311 12.0663C64.8994 12.0663 73.0614 20.1547 73.0614 30.0331C73.0614 39.9779 64.8994 48 54.9311 48C44.9629 48 36.8009 39.9779 36.8009 30.0331ZM47.1037 30.0331C47.1037 34.3425 50.6495 37.7901 54.9311 37.7901C59.2128 37.7901 62.7586 34.3425 62.7586 30.0331C62.7586 25.7901 59.2128 22.2762 54.9311 22.2762C50.6495 22.2762 47.1037 25.7901 47.1037 30.0331Z" fill="white"/>
<path d="M86.0423 30.0331C86.0423 34.2762 89.5881 37.7901 93.8698 37.7901C98.1515 37.7901 101.697 34.2762 101.697 30.0331V0.795578H112V30.0331C112 39.9116 103.838 48 93.8698 48C83.9015 48 75.7395 39.9116 75.7395 30.0331C75.7395 20.1547 83.9015 12.0663 93.8698 12.0663C95.2747 12.0663 98.5529 12.4641 100.694 13.326L96.8803 22.9392C96.0775 22.4088 95.4754 22.2762 93.8698 22.2762C89.5881 22.2762 86.0423 25.7238 86.0423 30.0331Z" fill="white"/>
<path d="M137.255 35.8442C131.618 35.5888 127.766 39.3162 126.651 45.9764H116.214C114.715 37.9965 121.177 29.6098 132.724 24.9126H116.119V14H137.33H148V24.6194V46H137.255V35.8442Z" fill="#D90429"/>
</svg>
