<svg width="256" height="256" viewBox="0 0 256 256" fill="none" xmlns="http://www.w3.org/2000/svg">
<path d="M256 128C256 198.692 198.692 256 128 256C57.3076 256 0 198.692 0 128C0 57.3076 57.3076 0 128 0C198.692 0 256 57.3076 256 128Z" fill="white"/>
<path d="M28.4444 187.733V99.1401C28.4444 72.4854 49.4933 51.2 75.8519 51.2C102.21 51.2 123.259 72.4854 123.259 99.1401C123.259 109.879 119.656 119.658 113.778 127.904C120.604 134.616 125.156 143.82 125.156 154.367V187.733H95.5733V154.367C95.5733 150.34 92.3496 147.08 88.7467 147.08H58.0267V187.733H28.4444ZM58.0267 99.1401V117.166H75.8519C85.7126 117.166 93.677 109.112 93.677 99.1401C93.677 89.1685 85.7126 81.1146 75.8519 81.1146C65.9911 81.1146 58.0267 89.1685 58.0267 99.1401Z" fill="#18181B"/>
<path d="M196.991 158.846C180.959 158.119 170.002 168.722 166.83 187.666H137.143C132.878 164.968 151.258 141.112 184.103 127.752H136.873V96.7111H227.556V187.733H196.991V158.846Z" fill="#D90429"/>
</svg>
