<svg width="148" height="48" viewBox="0 0 148 48" fill="none" xmlns="http://www.w3.org/2000/svg">
<g clip-path="url(#clip0_4027_1813)">
<path d="M0 47.2044V16.5746C0 7.35912 7.42604 0 16.7253 0C26.0246 0 33.4506 7.35912 33.4506 16.5746C33.4506 20.2873 32.1795 23.6685 30.1056 26.5193C32.514 28.8398 34.1196 32.0221 34.1196 35.6685V47.2044H23.683V35.6685C23.683 34.2762 22.5457 33.1492 21.2746 33.1492H10.4366V47.2044H0ZM10.4366 16.5746V22.8066H16.7253C20.2042 22.8066 23.014 20.0221 23.014 16.5746C23.014 13.1271 20.2042 10.3425 16.7253 10.3425C13.2464 10.3425 10.4366 13.1271 10.4366 16.5746Z" fill="#18181B"/>
<path d="M36.8008 30.0332C36.8008 20.1548 44.9628 12.0664 54.931 12.0664C64.8993 12.0664 73.0613 20.1548 73.0613 30.0332C73.0613 39.978 64.8993 48.0001 54.931 48.0001C44.9628 48.0001 36.8008 39.978 36.8008 30.0332ZM47.1036 30.0332C47.1036 34.3426 50.6494 37.7902 54.931 37.7902C59.2127 37.7902 62.7585 34.3426 62.7585 30.0332C62.7585 25.7902 59.2127 22.2763 54.931 22.2763C50.6494 22.2763 47.1036 25.7902 47.1036 30.0332Z" fill="#18181B"/>
<path d="M86.0423 30.0329C86.0423 34.276 89.5881 37.7899 93.8698 37.7899C98.1514 37.7899 101.697 34.276 101.697 30.0329V0.79541H112V30.0329C112 39.9114 103.838 47.9998 93.8698 47.9998C83.9015 47.9998 75.7395 39.9114 75.7395 30.0329C75.7395 20.1545 83.9015 12.0661 93.8698 12.0661C95.2747 12.0661 98.5528 12.4639 100.694 13.3258L96.8803 22.939C96.0775 22.4086 95.4754 22.276 93.8698 22.276C89.5881 22.276 86.0423 25.7236 86.0423 30.0329Z" fill="#18181B"/>
<path d="M137.255 35.8442C131.618 35.5888 127.766 39.3162 126.651 45.9764H116.214C114.715 37.9965 121.177 29.6098 132.724 24.9126H116.119V14H148V46H137.255V35.8442Z" fill="#D90429"/>
</g>
<defs>
<clipPath id="clip0_4027_1813">
<rect width="148" height="48" fill="white"/>
</clipPath>
</defs>
</svg>
